<?xml version="1.0" encoding="utf-8"?>
<!-- Generator: Adobe Illustrator 19.0.0, SVG Export Plug-In . SVG Version: 6.00 Build 0)  -->
<svg version="1.1" id="Capa_1" xmlns="http://www.w3.org/2000/svg" xmlns:xlink="http://www.w3.org/1999/xlink" x="0px" y="0px"
	 viewBox="0 0 159.9 82.9" style="enable-background:new 0 0 159.9 82.9;" xml:space="preserve">
<style type="text/css">
	.st0{fill:#EEF3F1;}
	.st1{fill:#EB6460;}
</style>
<path class="st0" d="M35.4,49.2c0,1.7-0.3,3.1-1,4.4c-0.7,1.2-1.6,2.3-2.7,3.1c-1.2,0.8-2.5,1.5-4,1.9c-1.5,0.4-3.2,0.7-4.9,0.7H3.8
	V20.2h20.9c1.4,0,2.6,0.3,3.7,0.9c1.1,0.6,2,1.3,2.8,2.3c0.8,0.9,1.4,2,1.8,3.2c0.4,1.2,0.6,2.4,0.6,3.6c0,1.9-0.5,3.7-1.4,5.4
	c-1,1.7-2.4,2.9-4.2,3.7c2.2,0.7,4,1.8,5.3,3.6C34.7,44.5,35.4,46.6,35.4,49.2 M11.4,26.7v9.9h10.1c1.3,0,2.4-0.4,3.3-1.3
	c0.9-0.9,1.3-2.1,1.3-3.6c0-1.5-0.4-2.7-1.2-3.6c-0.8-0.9-1.8-1.3-3.1-1.3H11.4z M27.7,47.8c0-0.7-0.1-1.4-0.4-2
	c-0.2-0.6-0.6-1.2-1-1.7c-0.4-0.5-0.9-0.9-1.4-1.1c-0.6-0.3-1.2-0.4-1.8-0.4H11.4v10.3h11.3c0.7,0,1.4-0.1,2-0.4
	c0.6-0.3,1.1-0.6,1.6-1.1c0.4-0.5,0.8-1,1-1.6C27.6,49.1,27.7,48.5,27.7,47.8"/>
<polygon id="XMLID_33_" class="st0" points="41.1,59.3 41.1,20.2 67.4,20.2 67.4,26.8 48.7,26.8 48.7,36.9 64.2,36.9 64.2,43.1 
	48.7,43.1 48.7,59.3 "/>
<path id="XMLID_32_" class="st0" d="M94.9,30.4c-0.3-0.3-0.7-0.6-1.4-1c-0.7-0.4-1.5-0.9-2.5-1.3c-1-0.4-2-0.8-3.2-1.1
	c-1.1-0.3-2.3-0.4-3.5-0.4c-2.1,0-3.7,0.4-4.7,1.2c-1,0.8-1.5,1.9-1.5,3.3c0,0.8,0.2,1.5,0.6,2c0.4,0.5,0.9,1,1.7,1.4
	c0.7,0.4,1.7,0.8,2.8,1.1c1.1,0.3,2.4,0.7,3.9,1c1.9,0.5,3.6,1.1,5.2,1.7c1.6,0.6,2.9,1.3,4,2.2c1.1,0.9,1.9,1.9,2.5,3.2
	c0.6,1.2,0.9,2.7,0.9,4.5c0,2.1-0.4,3.9-1.2,5.4c-0.8,1.5-1.9,2.7-3.2,3.6c-1.3,0.9-2.9,1.6-4.6,2c-1.7,0.4-3.6,0.6-5.5,0.6
	c-2.9,0-5.8-0.4-8.7-1.3c-2.9-0.9-5.4-2.1-7.7-3.7l3.4-6.6c0.3,0.3,0.9,0.8,1.8,1.3c0.9,0.5,1.9,1.1,3.1,1.6c1.2,0.5,2.5,1,3.9,1.3
	c1.4,0.4,2.9,0.6,4.4,0.6c4.2,0,6.3-1.3,6.3-4c0-0.8-0.2-1.6-0.7-2.1c-0.5-0.6-1.2-1.1-2-1.5c-0.9-0.4-1.9-0.8-3.2-1.2
	c-1.2-0.4-2.6-0.8-4.2-1.2c-1.9-0.5-3.5-1.1-4.9-1.7c-1.4-0.6-2.5-1.3-3.4-2.1c-0.9-0.8-1.6-1.8-2.1-2.9c-0.5-1.1-0.7-2.4-0.7-3.9
	c0-2,0.4-3.7,1.1-5.3c0.7-1.5,1.8-2.8,3.1-3.9c1.3-1,2.8-1.8,4.5-2.3c1.7-0.5,3.6-0.8,5.6-0.8c2.8,0,5.3,0.4,7.6,1.3
	c2.3,0.9,4.3,1.9,6.1,3.1L94.9,30.4z"/>
<path class="st0" d="M5.2,69.3h1.4L11.8,82H10l-1.5-3.7H3.2L1.7,82H0L5.2,69.3z M8.2,77l-2.3-5.9L3.5,77H8.2z"/>
<path class="st0" d="M14.2,82V69.3h5.4c0.6,0,1.1,0.1,1.5,0.3c0.5,0.2,0.9,0.5,1.2,0.9c0.3,0.4,0.6,0.8,0.8,1.3
	c0.2,0.5,0.3,1,0.3,1.5c0,0.4-0.1,0.9-0.2,1.3c-0.1,0.4-0.3,0.8-0.5,1.1c-0.2,0.3-0.5,0.6-0.8,0.9c-0.3,0.2-0.7,0.4-1.1,0.5l3.1,4.9
	H22l-2.9-4.6h-3.4V82H14.2z M15.8,76h3.8c0.3,0,0.6-0.1,0.9-0.2c0.3-0.1,0.5-0.3,0.7-0.6c0.2-0.2,0.3-0.5,0.4-0.9
	c0.1-0.3,0.2-0.7,0.2-1c0-0.4-0.1-0.7-0.2-1c-0.1-0.3-0.3-0.6-0.5-0.8c-0.2-0.2-0.5-0.4-0.7-0.6c-0.3-0.1-0.6-0.2-0.9-0.2h-3.7V76z"
	/>
<path class="st0" d="M35.1,80.9c-0.5,0.3-1,0.6-1.6,0.8c-0.6,0.2-1.2,0.3-1.8,0.3c-0.9,0-1.7-0.2-2.4-0.6c-0.7-0.4-1.4-0.9-1.9-1.5
	c-0.5-0.6-0.9-1.3-1.2-2.1c-0.3-0.8-0.4-1.6-0.4-2.4c0-0.8,0.2-1.7,0.5-2.4c0.3-0.8,0.7-1.5,1.3-2.1c0.5-0.6,1.2-1.1,1.9-1.4
	c0.7-0.4,1.5-0.5,2.4-0.5c0.9,0,1.7,0.2,2.4,0.6c0.7,0.4,1.4,0.9,1.9,1.5c0.5,0.6,0.9,1.3,1.2,2.1c0.3,0.8,0.4,1.6,0.4,2.4
	c0,0.9-0.2,1.7-0.5,2.4c-0.3,0.8-0.7,1.5-1.3,2l1.6,1.8H36L35.1,80.9z M31.7,80.6c0.5,0,0.9-0.1,1.3-0.2c0.4-0.1,0.8-0.3,1.1-0.6
	l-1.7-2H34l1,1.1c0.3-0.5,0.6-1,0.8-1.6c0.2-0.6,0.3-1.2,0.3-1.8c0-0.6-0.1-1.3-0.3-1.9c-0.2-0.6-0.5-1.1-0.9-1.6
	c-0.4-0.5-0.8-0.8-1.4-1.1c-0.5-0.3-1.1-0.4-1.8-0.4c-0.7,0-1.3,0.1-1.8,0.4c-0.5,0.3-1,0.7-1.4,1.1c-0.4,0.5-0.7,1-0.9,1.6
	c-0.2,0.6-0.3,1.2-0.3,1.8c0,0.6,0.1,1.3,0.3,1.9c0.2,0.6,0.5,1.1,0.9,1.6c0.4,0.5,0.8,0.8,1.4,1.1C30.5,80.5,31.1,80.6,31.7,80.6"
	/>
<path id="XMLID_25_" class="st0" d="M46,80.6c0.7,0,1.4-0.1,1.8-0.4c0.5-0.3,0.9-0.7,1.2-1.1c0.3-0.5,0.5-1,0.6-1.6
	c0.1-0.6,0.2-1.2,0.2-1.8v-6.4h1.6v6.4c0,0.9-0.1,1.7-0.3,2.4c-0.2,0.8-0.5,1.4-0.9,2c-0.4,0.6-1,1-1.7,1.4
	c-0.7,0.3-1.5,0.5-2.5,0.5c-1,0-1.9-0.2-2.6-0.5c-0.7-0.4-1.2-0.8-1.7-1.4c-0.4-0.6-0.7-1.3-0.9-2c-0.2-0.8-0.3-1.6-0.3-2.4v-6.4
	h1.6v6.4c0,0.6,0.1,1.2,0.2,1.8c0.1,0.6,0.3,1.1,0.6,1.6c0.3,0.5,0.7,0.8,1.2,1.1C44.7,80.5,45.3,80.6,46,80.6"/>
<rect id="XMLID_24_" x="55.1" y="69.3" class="st0" width="1.6" height="12.7"/>
<polygon id="XMLID_23_" class="st0" points="69.5,70.7 65.2,70.7 65.2,82 63.5,82 63.5,70.7 59.2,70.7 59.2,69.3 69.5,69.3 "/>
<polygon id="XMLID_22_" class="st0" points="80.6,80.5 80.6,82 72,82 72,69.3 80.5,69.3 80.5,70.7 73.6,70.7 73.6,74.8 79.6,74.8 
	79.6,76.2 73.6,76.2 73.6,80.5 "/>
<path id="XMLID_21_" class="st0" d="M82.3,75.5c0-0.8,0.1-1.5,0.4-2.3c0.3-0.8,0.7-1.4,1.2-2c0.5-0.6,1.2-1.1,1.9-1.5
	c0.8-0.4,1.6-0.6,2.6-0.6c1.1,0,2.1,0.3,2.9,0.8c0.8,0.5,1.4,1.2,1.8,2l-1.3,0.8c-0.2-0.4-0.4-0.7-0.7-1c-0.3-0.3-0.6-0.5-0.9-0.7
	c-0.3-0.2-0.6-0.3-1-0.4c-0.3-0.1-0.7-0.1-1-0.1c-0.7,0-1.3,0.1-1.9,0.4c-0.5,0.3-1,0.7-1.4,1.1c-0.4,0.5-0.6,1-0.8,1.6
	C84,74.4,84,75,84,75.6c0,0.7,0.1,1.3,0.3,1.9c0.2,0.6,0.5,1.1,0.9,1.6s0.9,0.8,1.4,1.1c0.5,0.3,1.1,0.4,1.8,0.4c0.3,0,0.7,0,1-0.1
	c0.4-0.1,0.7-0.2,1-0.4c0.3-0.2,0.6-0.4,0.9-0.7c0.3-0.3,0.5-0.6,0.7-1l1.3,0.7c-0.2,0.5-0.5,0.9-0.8,1.3c-0.4,0.4-0.8,0.7-1.2,0.9
	c-0.5,0.3-0.9,0.4-1.5,0.6c-0.5,0.1-1,0.2-1.5,0.2c-0.9,0-1.7-0.2-2.4-0.6c-0.7-0.4-1.4-0.9-1.9-1.5c-0.5-0.6-0.9-1.3-1.2-2.1
	C82.5,77.1,82.3,76.3,82.3,75.5"/>
<polygon id="XMLID_20_" class="st0" points="105.2,70.7 100.8,70.7 100.8,82 99.2,82 99.2,70.7 94.8,70.7 94.8,69.3 105.2,69.3 "/>
<path class="st0" d="M112.2,82.1c-0.9,0-1.7-0.2-2.4-0.5c-0.7-0.4-1.4-0.8-1.9-1.4c-0.5-0.6-0.9-1.3-1.2-2.1
	c-0.3-0.8-0.4-1.6-0.4-2.4c0-0.8,0.2-1.7,0.5-2.4c0.3-0.8,0.7-1.5,1.3-2.1c0.5-0.6,1.2-1.1,1.9-1.4c0.7-0.4,1.5-0.5,2.4-0.5
	c0.9,0,1.7,0.2,2.4,0.6c0.7,0.4,1.4,0.9,1.9,1.5c0.5,0.6,0.9,1.3,1.2,2.1c0.3,0.8,0.4,1.6,0.4,2.4c0,0.8-0.2,1.7-0.5,2.4
	c-0.3,0.8-0.7,1.5-1.3,2c-0.5,0.6-1.2,1.1-1.9,1.4C113.9,81.9,113.1,82.1,112.2,82.1 M107.9,75.6c0,0.6,0.1,1.3,0.3,1.9
	c0.2,0.6,0.5,1.1,0.9,1.6c0.4,0.5,0.8,0.8,1.4,1.1c0.5,0.3,1.1,0.4,1.8,0.4c0.7,0,1.3-0.1,1.8-0.4c0.5-0.3,1-0.7,1.4-1.1
	c0.4-0.5,0.7-1,0.9-1.6c0.2-0.6,0.3-1.2,0.3-1.8c0-0.6-0.1-1.3-0.3-1.9c-0.2-0.6-0.5-1.1-0.9-1.6c-0.4-0.5-0.8-0.8-1.4-1.1
	c-0.5-0.3-1.1-0.4-1.8-0.4c-0.7,0-1.3,0.1-1.8,0.4c-0.5,0.3-1,0.7-1.4,1.1c-0.4,0.5-0.7,1-0.9,1.6C108,74.4,107.9,75,107.9,75.6"/>
<path id="XMLID_17_" class="st0" d="M128.6,71.9c-0.1-0.2-0.3-0.3-0.6-0.5c-0.2-0.2-0.5-0.3-0.8-0.4c-0.3-0.1-0.6-0.2-1-0.3
	c-0.4-0.1-0.7-0.1-1.1-0.1c-1,0-1.7,0.2-2.2,0.6c-0.5,0.4-0.7,0.9-0.7,1.5c0,0.3,0.1,0.6,0.2,0.9c0.1,0.2,0.3,0.4,0.6,0.6
	c0.3,0.2,0.6,0.3,1,0.4c0.4,0.1,0.9,0.2,1.5,0.4c0.7,0.1,1.2,0.3,1.8,0.5c0.5,0.2,1,0.4,1.4,0.7c0.4,0.3,0.7,0.6,0.9,1
	c0.2,0.4,0.3,0.9,0.3,1.4c0,0.6-0.1,1.1-0.4,1.6c-0.2,0.4-0.6,0.8-1,1.1c-0.4,0.3-0.9,0.5-1.5,0.6c-0.6,0.1-1.2,0.2-1.8,0.2
	c-1,0-1.9-0.2-2.8-0.5c-0.9-0.3-1.7-0.7-2.4-1.3l0.8-1.4c0.2,0.2,0.4,0.4,0.7,0.6s0.7,0.4,1,0.5c0.4,0.2,0.8,0.3,1.3,0.4
	c0.4,0.1,0.9,0.2,1.4,0.2c0.9,0,1.6-0.2,2.1-0.5c0.5-0.3,0.8-0.8,0.8-1.5c0-0.4-0.1-0.7-0.2-0.9c-0.2-0.2-0.4-0.5-0.7-0.6
	c-0.3-0.2-0.7-0.3-1.2-0.5c-0.5-0.1-1-0.3-1.6-0.4c-0.6-0.2-1.2-0.3-1.7-0.5c-0.5-0.2-0.9-0.4-1.2-0.6c-0.3-0.2-0.6-0.6-0.7-0.9
	c-0.2-0.4-0.2-0.8-0.2-1.3c0-0.6,0.1-1.1,0.3-1.6c0.2-0.5,0.5-0.9,0.9-1.2c0.4-0.3,0.9-0.6,1.4-0.7c0.6-0.2,1.2-0.2,1.8-0.2
	c0.9,0,1.6,0.1,2.3,0.4c0.7,0.3,1.3,0.6,1.8,1.1L128.6,71.9z"/>
<polygon id="XMLID_16_" class="st1" points="145.7,29.5 145.7,49.4 154.9,65.3 154.9,20.3 128.9,20.3 134.2,29.5 "/>
<polygon id="XMLID_15_" class="st0" points="159.9,82.9 112,0 112,18 149.6,82.9 "/>
</svg>
